<svg width="982" height="480"><g><path d="M513.173,45.692L511.385,45.751L508.354,46.349L506.705,48.052L506.127,49.919L503.721,55.232L503.813,56.984L504.207,58.572L504.796,59.657L505.994,62.684L505.917,63.913L506.174,65.485L505.702,66.907L504.279,68.568L504.817,70.371L505.508,71.015L505.559,72.276L505.354,73.987L504.689,74.911L503.931,75.422L503.7,77.16L502.574,78.173L502.195,78.181L502.225,80.946L502.902,86.314L502.261,86.568L502.753,86.977L499.681,90.639L498.708,90.768L497.101,91.549L497.838,94.006L498.785,95.289L500.219,96.31L502.011,96.72L507.31,97.387L508.462,97.925L510.203,99.793L512.328,102.861L518.702,104.139L521.37,107.511L521.933,107.948L523.699,111.762L524.775,114.375L524.944,116.017L522.599,116.601L505.804,116.9L505.902,119.292L510.71,119.292L512.138,122.605L512.656,123.391L507.745,124.003L507.781,120.539L503.854,120.01L503.444,124.619L498.923,122.126L496.747,122.154L497.812,124.311L491.294,130.024L484.812,124.311L478.412,131.188L480.982,138.253L482.016,140.927L483.107,142.284L484.894,143.861L487.828,146.162L488.99,147.661L486.804,150.729L487.608,151.456L486.051,153.775L486.41,153.931L487.086,153.236L488.688,153.25L490.229,154.248L490.654,155.044L493.209,157.887L493.757,157.505L495.093,158.117L497.628,159.695L498.549,159.566L501.084,158.338L503.081,158.439L503.951,157.854L505.001,157.749L506.101,157.059L506.768,155.858L508.682,155.164L512.625,155.444L515.85,156.263L517.668,156.981L519.204,157.234L520.305,159.28L521.022,161.199L521.559,163.733L521.38,165.729L520.254,167.188L519.614,168.394L519.101,169.976L518.206,172.023L521.549,171.935L522.404,172.75L523.5,174.65L524.657,174.737L525.824,175.593L530.084,172.124L531.016,172.786L533.755,172.041L533.858,172.92L535.691,173.803L538.65,173.752L541.671,173.923L542.659,173.034L543.14,172.105L544.354,171.508L544.431,172.506L544.814,172.501L545.521,171.139L544.927,170.275L546.044,169.461L548.076,169.005L548.435,170.468L548.03,172.11L548.593,173.862L550.088,173.849L551.763,173.127L552.397,173.642L553.324,173.509L554.241,171.65L554.174,171.048L555.06,170.905L555.808,173.67L556.074,175.357L557.154,174.58L557.272,173.26L557.963,172.708L557.615,172.073L558.824,172.073L559.52,174.042L560.953,173.025L561.542,172.225L563.549,171.876L564.916,172.46L564.629,173.338L566.207,173.656L566.698,174.276L567.092,175.749L566.693,177.299L567.302,177.838L568.895,177.111L569.463,177.621L570.584,177.501L571.654,177.805L572.208,177.331L573.17,177.925L573.323,178.528L574.655,178.688L574.947,178.1L575.591,178.403L577.522,178.426L579.386,176.177L580.097,175.892L580.819,171.452L582.182,171.806L582.248,170.21L583.011,169.658L583.636,168.582L584.388,168.904L584.957,168.545L585.704,168.729L586.185,167.727L586.969,167.648L587.793,166.995L589.503,166.581L589.657,167.915L589.324,168.499L590.568,168.605L590.998,170.413L591.413,171.356L591.946,171.668L592.288,172.828L593.246,172.713L593.697,173.748L594.311,173.196L594.034,171.342L594.362,170.182L594.116,169.028L594.526,168.085L595.217,168.085L596.395,166.866L596.825,167.082L596.717,168.394L595.878,169.594L594.654,170.399L594.797,171.6L595.412,170.79L596.482,170.992L596.543,169.539L597.137,169.276L597.286,171.738L598.371,172.313L598.668,172.051L598.32,170.859L599.308,169.653L600.86,169.889L600.655,171.144L601.131,172.676L601.484,172.414L601.197,171.167L601.735,171.296L601.832,172.846L602.375,173.637L601.853,173.982L601.469,176.057L602.021,175.638L603.317,175.344L604.643,174.093L605.16,174.061L605.094,172.736L605.739,172.455L605.662,171.935L609.272,173.591L610.034,173.794L610.859,173.462L612.334,174.893L614.448,174.208L615.201,174.396L615.923,175.593L616.328,175.666L617.244,174.788L617.873,175.132L617.71,175.616L618.708,176.131L618.862,175.795L619.578,176.425L619.865,177.722L622.052,177.57L622.343,176.724L623.157,176.315L623.403,175.16L625.155,175.151L626.009,174.829L626.179,176.273L626.946,176.185L627.479,176.724L628.508,176.351L628.779,174.912L629.312,174.313L630.454,173.743L631.416,172.189L632.742,172.271L634.181,173.38L634.801,177.451L635.994,177.649L638.533,177.359L639.598,176.047L641.318,173.586L641.861,173.025L643.065,174.323L642.455,175.771L643.663,176.545L643.397,177.911L644.57,177.501L644.734,178.932L645.41,179.705L646.418,180.345L646.966,180.284L648.395,179.236L649.019,177.985L649.019,176.968L649.9,176.821L650.299,178.302L651.211,178.205L651.84,176.402L653.249,174.921L653.586,175.785L654.38,176.734L655.384,176.765L655.793,177.143L656.279,178.545L657.237,178.407L657.944,179.585L658.717,179.415L659.377,180.018L660.032,180.1L661.307,179.7L661.282,179.029L664.201,177.515L664.508,178.238L664.605,179.59L665.501,179.898L665.536,180.537L666.376,180.671L667.871,181.637L668.255,182.768L669.469,182.382L669.597,183.431L668.834,184.853L669.09,185.727L669.899,186.288L669.356,187.677L669.597,189.729L670.928,189.655L671.363,191.159L672.29,190.524L672.295,188.491L671.609,187.681L672.224,185.34L673.591,185.86L673.703,186.333L674.773,186.145L674.999,184.369L677.743,183.403L678.158,183.495L679.714,184.76L680.17,185.437L680.774,188.229L681.742,188.367L681.496,186.536L682.592,186.246L682.233,184.816L682.495,184.383L683.856,184.995L684.21,185.975L685.316,186.72L686.115,186.08L687.072,186.039L687.656,185.354L687.65,186.186L688.761,186.38L688.93,184.489L689.55,183.84L690.62,183.937L691.88,185.009L693.129,184.084L693.621,184.719L695.766,183.721L696.135,184.277L698.505,183.251L701.193,182.667L703.057,181.816L703.62,182.06L705.336,185.63L707.614,185.832L718.766,185.777L723.68,185.704L726.369,185.878L716.016,214.435L713.686,217.761L710.763,219.988L661.512,243.033L659.004,245.012L656.362,248.613L652.179,257.625L650.366,259.244L647.437,259.778L639.91,259.41L637.678,259.948L635.866,261.392L635.446,263.375L636.004,265.358L639.491,267.883L640.054,269.687L639.91,272.032L637.12,282.668L636.982,286.09L637.258,289.337L637.955,291.684L639.772,293.308L665.685,303.805L667.36,305.792L667.774,307.954L667.498,310.3L666.243,312.099L664.011,312.812L653.566,311.528L650.084,312.062L646.874,312.78L641.856,314.574L637.535,317.453L633.536,321.391L630.085,325.177L626.547,329.717L618.544,339.786L617.013,341.052L614.356,341.59L600.368,340.904L597.567,341.268L595.888,342.712L595.048,345.054L594.766,348.122L595.745,351.899L597.849,355.491L608.478,368.969L609.6,371.844L609.318,375.989L607.777,378.694L605.677,379.775L602.744,379.6L582.719,371.564L578.096,369.958L574.035,369.797L563.805,372.713L561.138,374.347L559.596,377.052L550.073,401.377L548.67,403L546.571,403.368L544.047,402.835L522.788,387.227L520.131,384.711L517.259,384.366L510.438,383.091L508.979,385.24L509.808,387.111L510.402,389.679L514.407,390.7L516.905,391.086L518.262,393.032L523.664,406.814L524.017,408.769L523.628,410.636L522.993,412.104L521.452,413.658L519.511,415.269L517.371,415.407L515.236,415.071L510.904,410.977L510.438,409.496L511.273,406.745L510.664,404.914L508.606,404.049L506.757,404.196L501.381,405.273L499.348,404.965L478.095,398.455L477.501,400.457L477.854,403.079L479.764,405.857L492.18,415.586L496.24,418.364L502.215,421.76L506.398,423.917L509.266,426.387L509.747,427.928L509.143,430.546L507.474,434.704L507.238,437.781L507.592,441.636L508.549,444.713L510.341,445.795L515.011,447.331L517.96,446.752L518.754,447.501L518.713,449.061L515.722,451.949L513.213,453.647L508.667,454.415L504.483,455.8L501.729,457.492L488.714,468.252L486.707,469.549L484.295,470L470.45,465.75L466.395,463.891L449.453,448.15L449.212,446.452L450.052,443.067L450.288,439.837L449.694,435.523L442.413,417.482L442.054,415.945L442.53,411.322L442.059,409.932L440.738,408.695L424.492,404.058L422.464,404.404L420.883,406.183L418.169,404.67L415.573,403.635L408.226,401.754L404.79,400.374L402.624,398.745L401.391,397.177L398.221,395.567L394.038,389.522L393.142,387.006L393.388,385.336L394.289,380.676L394.243,380.382L393.081,380.308L392.804,380.676L392.123,380.23L392.21,379.02L391.304,377.337L391.17,377.76L390.136,377.971L390.28,377.235L388.185,375.35L387.12,375.387L387.161,372.258L386.46,370.497L387.884,368.739L388.011,368.256L389.051,367.736L389.076,366.775L388.134,366.83L387.397,366.237L386.593,364.318L382.681,363.799L382.569,363.113L381.253,363.376L379.231,361.172L378.606,361.807L375.738,358.753L373.921,360.468L372.528,362.073L368.356,363.633L367.152,364.622L367.07,365.998L363.491,367.502L361.93,365.335L360.158,366.085L358.515,364.802L358.781,364.563L356.17,360.8L353.599,356.292L361.141,352.506L376.409,335.232L377.039,332.132L373.465,330.025L370.541,327.817L368.842,324.39L366.952,323.332L365.693,321.027L365.063,317.283L365.012,313.81L364.433,313.005L363.112,312.269L360.773,313.12L359.406,313.153L358.417,312.417L357.184,305.084L356.293,304.559L354.208,305.208L353.456,304.679L353.271,303.855L353.108,300.879L352.79,299.702L350.86,298.313L343.799,298.395L329.863,298.115L327.231,295.732L325.5,289.016L322.587,282.888L321.291,281.5L320.349,279.756L319.561,277.143L319.632,274.181L320.349,271.131L321.788,269.493L323.892,268.049L328.019,266.296L328.7,265.054L328.469,263.886L327.231,262.496L323.155,260.155L321.854,258.839L321.01,256.424L320.61,253.94L321.01,251.746L322.059,250.095L324.251,248.931L326.606,248.604L328.884,248.549L335.592,249.428L345.771,251.944L346.836,251.452L346.836,249.906L345.975,248.885L341.613,246.332L341.05,244.869L341.275,243.259L341.782,242.233L343.2,241.576L344.675,241.644L348.469,244.275L349.718,243.907L352.381,241.488L352.381,240.246L352.043,239.078L350.855,238.052L347.45,238.13L345.863,237.27L344.941,237.197L342.463,238.406L340.369,238.213L339.232,237.702L338.5,236.607L335.894,231.124L334.44,229.27L332.505,228.267L330.441,228.438L328.766,229.937L326.98,234.128L326.017,234.855L324.824,234.712L324.036,234.05L323.191,232.283L321.137,223.691L320.902,220.282L321.383,217.053L322.612,213.998L324.543,212.108L326.581,211.225L329.074,211.372L337.926,212.595L339.447,212.154L340.225,210.507L340.794,207.489L341.434,206.297L342.847,206.022L351.561,210.309L353.333,211.128L355.11,211.128L357.234,210.116L360.27,207.724L361.986,207.724L363.686,208.818L365.693,211.716L367.869,213.474L370.562,213.833L372.943,211.574L373.824,212.544L378.575,208.781L379.43,206.22L379.077,203.842L378.078,201.652L376.24,200.01L374.397,199.917L368.719,202.314L366.875,202.042L365.391,200.671L364.751,198.298L364.817,196.651L365.616,195.304L367.183,193.854L367.941,192.507L368.012,191.062L367.475,188.633L367.741,186.844L368.77,185.552L370.429,184.843L374.797,182.373L385.749,175.45L388.288,174.654L394.591,180.519L396.69,181.531L398.257,179.318L398.062,170.054L396.551,167.234L393.91,164.507L393.598,161.958L396.331,157.321L400.366,151.635L401.528,147.872L401.621,145.379L401.083,143.162L399.798,142.591L396.398,143.793L394.017,145.968L389.67,150.412L382.384,154.138L381.683,155.587L381.192,157.487L379.231,158.761L376.778,158.945L374.745,158.135L370.608,158.149L361.428,161.516L349.068,166.636L343.251,173.32L340.026,174.99L310.375,178.109L321.245,140.232L320.252,139.896L321.814,128.994L323.478,127.053L329.238,127.214L331.813,126.85L332.612,125.199L332.074,123.138L328.654,121.077L325.541,117.002L327.133,113.704L329.898,110.635L331.792,107.861L331.654,104.972L328.71,97.47L327.702,96.775L325.756,96.481L323.272,97.479L322.674,97.383L322.761,96.338L323.426,94.148L322.474,93.748L321.68,93.951L319.847,94.949L318.101,95.05L317.149,94.554L315.675,92.414L314.359,90.975L311.799,89.682L311.195,89.135L310.882,88.091L310.227,87.69L307.697,88.389L307.047,88.288L306.683,87.243L306.771,86.246L309.828,83.904L310.559,83.007L310.979,80.919L313.718,76.981L316.617,73.885L324.046,66.304L327.082,62.211L331.122,61.902L331.306,60.655L330.395,59.814L329.724,58.218L329.954,56.672L333.431,51.833L336.083,48.535L339.637,45.531L341.378,44.73L342.376,44.675L345.683,45.558L347.68,45.052L350.548,44.767L352.493,46.151L354.178,46.893L355.555,46.91L356.764,47.329L357.224,48.249L357.408,50.669L357.869,51.437L360.137,51.763L361.633,54.087L362.232,54.206L364.275,53.701L367.756,53.981L372.539,52.238L373.634,51.681L374.044,50.71L373.89,46.75L375.134,44.551L375.022,43.778L373.501,42.089L373.312,41.045L373.947,39.946L375.805,38.543L376.286,37.991L375.744,36.721L376.998,34.472L378.585,33.906L379.788,33.704L381.683,33.934L384.858,33.727L386.214,33.267L387.213,32.563L391.124,28.051L392.686,26.947L394.043,26.409L397.151,26.675L399.706,25.47L400.95,26.454L402.481,28.603L404.667,28.11L405.256,29.063L406.244,32.048L407.847,32.19L408.579,31.119L410.135,27.848L411.093,26.675L412.086,26.146L413.131,26.169L413.11,25.41L412.445,24.081L412.266,22.618L412.906,21.647L414.672,20.06L415.875,19.499L416.285,17.733L418.379,13.593L418.998,12.107L420.15,11.518L423.197,10.98L426.832,10.161L429.382,10L429.889,10.473L430.155,11.868L432.93,14.209L433.063,16.849L435.977,18.34L437.549,20.382L438.163,21.431L438.936,21.578L440.119,19.692L440.984,20.18L441.742,23.754L442.382,23.639L443.124,22.636L443.994,22.397L445.239,24.49L446.227,24.637L447.318,22.517L448.127,21.495L449.842,21.196L450.277,20.175L451.516,16.159L452.796,13.243L453.503,12.318L454.573,12.171L456.652,13.142L459.048,14.614L458.976,16.044L459.212,16.481L460.261,16.854L461.009,16.656L463.502,15.161L465.832,14.389L467.025,14.389L467.905,15.037L468.095,16.334L467.158,16.78L465.248,15.708L464.409,15.883L464.199,17.028L465.658,18.276L466.59,18.823L467.583,18.924L468.525,18.574L469.585,18.735L469.728,19.246L468.889,21.491L466.651,25.281L462.801,29.444L462.688,30.589L463.159,31.362L464.864,31.164L467.404,31.086L470.543,31.409L472.468,31.883L474.807,31.984L476.144,31.459L475.98,30.438L473.589,28.643L473.65,27.522L477.577,23.285L478.95,23.607L479.636,24.481L480.127,26.027L479.641,28.69L479.805,29.688L482.703,32.029L485.314,32.053L486.22,32.526L488.212,34.343L488.959,34.592L490.777,34.518L492.267,35.737L493.388,35.912L495.006,35.733L496.404,37.674L497.705,38.198L498.836,40.811L499.656,42.384L500.065,44.872L500.219,46.901L501.104,47.835L501.924,47.661L503.536,45.365L504.509,43.222L505.677,41.124L506.936,40.3L509.087,40.765L509.604,40.295L509.517,38.511L510.346,37.775L511.217,37.747L511.903,38.391L511.688,39.39L511.713,40.986L512.999,42.84ZM742.435,212.807L744.069,213.147L744.827,212.628L745.81,212.798L745.917,211.933L746.373,212.021L746.568,213.552L746.962,214.518L746.531,215.328L744.888,216.671L744.299,218.428L743.081,219.321L742.687,220.019L741.714,220.677L740.787,220.521L740.403,219.813L741.417,218.644L741.114,217.706L739.558,216.946L738.483,217.02L737.397,216.068L737.106,215.162L735.943,214.904L735.703,214.224L736.45,212.011L735.656,211.252L734.791,211.118L735.222,210.313L736.578,210.898L738.488,210.985L739.599,211.947L740.485,212.213L741.007,211.836ZM253.757,282.346L252.047,281.881L251.202,281.067L250.173,279.618L250.142,277.658L249.819,276.881L249.021,276.196L246.471,274.7L245.283,273.376L243.573,271.163L242.77,270.547L241.623,270.101L240.685,270.441L239.277,269.723L238.412,269.907L237.797,270.629L236.994,270.615L235.038,268.937L235.268,268.228L236.476,267.943L238.279,268.146L239.144,268.472L240.655,267.772L242.871,268.072L244.131,267.372L245.048,267.575L245.35,268.044L246.369,271.292L247.879,272.989L249.067,273.776L250.516,274.374L252.769,274.921L254.643,276.219L255.697,278.049L256.322,279.857L256.972,280.556L257.054,281.173L256.507,281.747ZM263.552,276.945L262.472,276.2L261.627,275.221L261.407,273.817L260.638,272.874L259.251,272.009L259.353,270.542L260.162,269.061L260.848,268.744L262.175,268.716L262.968,269.056L264.033,268.959L265.098,268.288L265.712,266.522L266.112,266.085L267.284,265.684L267.96,265.841L268.907,266.972L269.455,268.826L269.491,270.192L268.79,269.921L267.53,270.101L267.126,270.859L265.968,271.36L265.231,272.584L264.699,275.261L264.202,276.71ZM678.347,298.786L677.856,298.91L677.585,298.055L677.195,298.92L676.714,299.103L676.663,298.078L677.415,297.116L677.902,297.13L678.388,297.908L679.223,297.623L679.146,298.183ZM333.846,300.18L334.163,299.03L336.406,299.122L337.645,300.245L338.408,300.479L337.88,301.592L338.013,302.618L337.322,303.088L335.551,302.361L334.143,301.409ZM266.645,241.143L266.025,240.485L267.008,239.749L267.54,239.768L267.55,240.637ZM331.122,232.674L332.371,232.164L333.144,232.761L332.919,233.852L332.97,235.766L332.525,236.235L331.915,236.101L331.168,235.039L330.774,233.787ZM560.359,452.538L561.358,453.054L560.672,453.822L559.187,453.146L558.772,452.06L559.848,451.834ZM585.09,400.746L586.262,399.674L586.359,401.169L585.141,401.252ZM367.654,190.648L367.249,191.306L365.667,191.43L365.227,190.772L365.703,190.156L367.245,190.078ZM319.822,284.218L320.267,284.291L320.58,285.184L319.484,285.253ZM371.089,206.528L371.233,205.622L372.057,204.637L372.958,204.674L373.204,206.891L372.539,207.576Z" fill="#bfdbfe" opacity="0.5"></path><path d="M513.173,45.692L511.385,45.751L508.354,46.349L506.705,48.052L506.127,49.919L503.721,55.232L503.813,56.984L504.207,58.572L504.796,59.657L505.994,62.684L505.917,63.913L506.174,65.485L505.702,66.907L504.279,68.568L504.817,70.371L505.508,71.015L505.559,72.276L505.354,73.987L504.689,74.911L503.931,75.422L503.7,77.16L502.574,78.173L502.195,78.181L502.225,80.946L502.902,86.314L502.261,86.568L502.753,86.977L499.681,90.639L498.708,90.768L497.101,91.549L497.838,94.006L498.785,95.289L500.219,96.31L502.011,96.72L507.31,97.387L508.462,97.925L510.203,99.793L512.328,102.861L518.702,104.139L521.37,107.511L521.933,107.948L523.699,111.762L524.775,114.375L524.944,116.017L522.599,116.601L505.804,116.9L505.902,119.292L510.71,119.292L512.138,122.605L512.656,123.391L507.745,124.003L507.781,120.539L503.854,120.01L503.444,124.619L498.923,122.126L496.747,122.154L497.812,124.311L491.294,130.024L484.812,124.311L478.412,131.188L480.982,138.253L482.016,140.927L483.107,142.284L484.894,143.861L487.828,146.162L488.99,147.661L486.804,150.729L487.608,151.456L486.051,153.775L486.41,153.931L487.086,153.236L488.688,153.25L490.229,154.248L490.654,155.044L493.209,157.887L493.757,157.505L495.093,158.117L497.628,159.695L498.549,159.566L501.084,158.338L503.081,158.439L503.951,157.854L505.001,157.749L506.101,157.059L506.768,155.858L508.682,155.164L512.625,155.444L515.85,156.263L517.668,156.981L519.204,157.234L520.305,159.28L521.022,161.199L521.559,163.733L521.38,165.729L520.254,167.188L519.614,168.394L519.101,169.976L518.206,172.023L521.549,171.935L522.404,172.75L523.5,174.65L524.657,174.737L525.824,175.593L530.084,172.124L531.016,172.786L533.755,172.041L533.858,172.92L535.691,173.803L538.65,173.752L541.671,173.923L542.659,173.034L543.14,172.105L544.354,171.508L544.431,172.506L544.814,172.501L545.521,171.139L544.927,170.275L546.044,169.461L548.076,169.005L548.435,170.468L548.03,172.11L548.593,173.862L550.088,173.849L551.763,173.127L552.397,173.642L553.324,173.509L554.241,171.65L554.174,171.048L555.06,170.905L555.808,173.67L556.074,175.357L557.154,174.58L557.272,173.26L557.963,172.708L557.615,172.073L558.824,172.073L559.52,174.042L560.953,173.025L561.542,172.225L563.549,171.876L564.916,172.46L564.629,173.338L566.207,173.656L566.698,174.276L567.092,175.749L566.693,177.299L567.302,177.838L568.895,177.111L569.463,177.621L570.584,177.501L571.654,177.805L572.208,177.331L573.17,177.925L573.323,178.528L574.655,178.688L574.947,178.1L575.591,178.403L577.522,178.426L579.386,176.177L580.097,175.892L580.819,171.452L582.182,171.806L582.248,170.21L583.011,169.658L583.636,168.582L584.388,168.904L584.957,168.545L585.704,168.729L586.185,167.727L586.969,167.648L587.793,166.995L589.503,166.581L589.657,167.915L589.324,168.499L590.568,168.605L590.998,170.413L591.413,171.356L591.946,171.668L592.288,172.828L593.246,172.713L593.697,173.748L594.311,173.196L594.034,171.342L594.362,170.182L594.116,169.028L594.526,168.085L595.217,168.085L596.395,166.866L596.825,167.082L596.717,168.394L595.878,169.594L594.654,170.399L594.797,171.6L595.412,170.79L596.482,170.992L596.543,169.539L597.137,169.276L597.286,171.738L598.371,172.313L598.668,172.051L598.32,170.859L599.308,169.653L600.86,169.889L600.655,171.144L601.131,172.676L601.484,172.414L601.197,171.167L601.735,171.296L601.832,172.846L602.375,173.637L601.853,173.982L601.469,176.057L602.021,175.638L603.317,175.344L604.643,174.093L605.16,174.061L605.094,172.736L605.739,172.455L605.662,171.935L609.272,173.591L610.034,173.794L610.859,173.462L612.334,174.893L614.448,174.208L615.201,174.396L615.923,175.593L616.328,175.666L617.244,174.788L617.873,175.132L617.71,175.616L618.708,176.131L618.862,175.795L619.578,176.425L619.865,177.722L622.052,177.57L622.343,176.724L623.157,176.315L623.403,175.16L625.155,175.151L626.009,174.829L626.179,176.273L626.946,176.185L627.479,176.724L628.508,176.351L628.779,174.912L629.312,174.313L630.454,173.743L631.416,172.189L632.742,172.271L634.181,173.38L634.801,177.451L635.994,177.649L638.533,177.359L639.598,176.047L641.318,173.586L641.861,173.025L643.065,174.323L642.455,175.771L643.663,176.545L643.397,177.911L644.57,177.501L644.734,178.932L645.41,179.705L646.418,180.345L646.966,180.284L648.395,179.236L649.019,177.985L649.019,176.968L649.9,176.821L650.299,178.302L651.211,178.205L651.84,176.402L653.249,174.921L653.586,175.785L654.38,176.734L655.384,176.765L655.793,177.143L656.279,178.545L657.237,178.407L657.944,179.585L658.717,179.415L659.377,180.018L660.032,180.1L661.307,179.7L661.282,179.029L664.201,177.515L664.508,178.238L664.605,179.59L665.501,179.898L665.536,180.537L666.376,180.671L667.871,181.637L668.255,182.768L669.469,182.382L669.597,183.431L668.834,184.853L669.09,185.727L669.899,186.288L669.356,187.677L669.597,189.729L670.928,189.655L671.363,191.159L672.29,190.524L672.295,188.491L671.609,187.681L672.224,185.34L673.591,185.86L673.703,186.333L674.773,186.145L674.999,184.369L677.743,183.403L678.158,183.495L679.714,184.76L680.17,185.437L680.774,188.229L681.742,188.367L681.496,186.536L682.592,186.246L682.233,184.816L682.495,184.383L683.856,184.995L684.21,185.975L685.316,186.72L686.115,186.08L687.072,186.039L687.656,185.354L687.65,186.186L688.761,186.38L688.93,184.489L689.55,183.84L690.62,183.937L691.88,185.009L693.129,184.084L693.621,184.719L695.766,183.721L696.135,184.277L698.505,183.251L701.193,182.667L703.057,181.816L703.62,182.06L705.336,185.63L707.614,185.832L718.766,185.777L723.68,185.704L726.369,185.878L716.016,214.435L713.686,217.761L710.763,219.988L661.512,243.033L659.004,245.012L656.362,248.613L652.179,257.625L650.366,259.244L647.437,259.778L639.91,259.41L637.678,259.948L635.866,261.392L635.446,263.375L636.004,265.358L639.491,267.883L640.054,269.687L639.91,272.032L637.12,282.668L636.982,286.09L637.258,289.337L637.955,291.684L639.772,293.308L665.685,303.805L667.36,305.792L667.774,307.954L667.498,310.3L666.243,312.099L664.011,312.812L653.566,311.528L650.084,312.062L646.874,312.78L641.856,314.574L637.535,317.453L633.536,321.391L630.085,325.177L626.547,329.717L618.544,339.786L617.013,341.052L614.356,341.59L600.368,340.904L597.567,341.268L595.888,342.712L595.048,345.054L594.766,348.122L595.745,351.899L597.849,355.491L608.478,368.969L609.6,371.844L609.318,375.989L607.777,378.694L605.677,379.775L602.744,379.6L582.719,371.564L578.096,369.958L574.035,369.797L563.805,372.713L561.138,374.347L559.596,377.052L550.073,401.377L548.67,403L546.571,403.368L544.047,402.835L522.788,387.227L520.131,384.711L517.259,384.366L510.438,383.091L508.979,385.24L509.808,387.111L510.402,389.679L514.407,390.7L516.905,391.086L518.262,393.032L523.664,406.814L524.017,408.769L523.628,410.636L522.993,412.104L521.452,413.658L519.511,415.269L517.371,415.407L515.236,415.071L510.904,410.977L510.438,409.496L511.273,406.745L510.664,404.914L508.606,404.049L506.757,404.196L501.381,405.273L499.348,404.965L478.095,398.455L477.501,400.457L477.854,403.079L479.764,405.857L492.18,415.586L496.24,418.364L502.215,421.76L506.398,423.917L509.266,426.387L509.747,427.928L509.143,430.546L507.474,434.704L507.238,437.781L507.592,441.636L508.549,444.713L510.341,445.795L515.011,447.331L517.96,446.752L518.754,447.501L518.713,449.061L515.722,451.949L513.213,453.647L508.667,454.415L504.483,455.8L501.729,457.492L488.714,468.252L486.707,469.549L484.295,470L470.45,465.75L466.395,463.891L449.453,448.15L449.212,446.452L450.052,443.067L450.288,439.837L449.694,435.523L442.413,417.482L442.054,415.945L442.53,411.322L442.059,409.932L440.738,408.695L424.492,404.058L422.464,404.404L420.883,406.183L418.169,404.67L415.573,403.635L408.226,401.754L404.79,400.374L402.624,398.745L401.391,397.177L398.221,395.567L394.038,389.522L393.142,387.006L393.388,385.336L394.289,380.676L394.243,380.382L393.081,380.308L392.804,380.676L392.123,380.23L392.21,379.02L391.304,377.337L391.17,377.76L390.136,377.971L390.28,377.235L388.185,375.35L387.12,375.387L387.161,372.258L386.46,370.497L387.884,368.739L388.011,368.256L389.051,367.736L389.076,366.775L388.134,366.83L387.397,366.237L386.593,364.318L382.681,363.799L382.569,363.113L381.253,363.376L379.231,361.172L378.606,361.807L375.738,358.753L373.921,360.468L372.528,362.073L368.356,363.633L367.152,364.622L367.07,365.998L363.491,367.502L361.93,365.335L360.158,366.085L358.515,364.802L358.781,364.563L356.17,360.8L353.599,356.292L361.141,352.506L376.409,335.232L377.039,332.132L373.465,330.025L370.541,327.817L368.842,324.39L366.952,323.332L365.693,321.027L365.063,317.283L365.012,313.81L364.433,313.005L363.112,312.269L360.773,313.12L359.406,313.153L358.417,312.417L357.184,305.084L356.293,304.559L354.208,305.208L353.456,304.679L353.271,303.855L353.108,300.879L352.79,299.702L350.86,298.313L343.799,298.395L329.863,298.115L327.231,295.732L325.5,289.016L322.587,282.888L321.291,281.5L320.349,279.756L319.561,277.143L319.632,274.181L320.349,271.131L321.788,269.493L323.892,268.049L328.019,266.296L328.7,265.054L328.469,263.886L327.231,262.496L323.155,260.155L321.854,258.839L321.01,256.424L320.61,253.94L321.01,251.746L322.059,250.095L324.251,248.931L326.606,248.604L328.884,248.549L335.592,249.428L345.771,251.944L346.836,251.452L346.836,249.906L345.975,248.885L341.613,246.332L341.05,244.869L341.275,243.259L341.782,242.233L343.2,241.576L344.675,241.644L348.469,244.275L349.718,243.907L352.381,241.488L352.381,240.246L352.043,239.078L350.855,238.052L347.45,238.13L345.863,237.27L344.941,237.197L342.463,238.406L340.369,238.213L339.232,237.702L338.5,236.607L335.894,231.124L334.44,229.27L332.505,228.267L330.441,228.438L328.766,229.937L326.98,234.128L326.017,234.855L324.824,234.712L324.036,234.05L323.191,232.283L321.137,223.691L320.902,220.282L321.383,217.053L322.612,213.998L324.543,212.108L326.581,211.225L329.074,211.372L337.926,212.595L339.447,212.154L340.225,210.507L340.794,207.489L341.434,206.297L342.847,206.022L351.561,210.309L353.333,211.128L355.11,211.128L357.234,210.116L360.27,207.724L361.986,207.724L363.686,208.818L365.693,211.716L367.869,213.474L370.562,213.833L372.943,211.574L373.824,212.544L378.575,208.781L379.43,206.22L379.077,203.842L378.078,201.652L376.24,200.01L374.397,199.917L368.719,202.314L366.875,202.042L365.391,200.671L364.751,198.298L364.817,196.651L365.616,195.304L367.183,193.854L367.941,192.507L368.012,191.062L367.475,188.633L367.741,186.844L368.77,185.552L370.429,184.843L374.797,182.373L385.749,175.45L388.288,174.654L394.591,180.519L396.69,181.531L398.257,179.318L398.062,170.054L396.551,167.234L393.91,164.507L393.598,161.958L396.331,157.321L400.366,151.635L401.528,147.872L401.621,145.379L401.083,143.162L399.798,142.591L396.398,143.793L394.017,145.968L389.67,150.412L382.384,154.138L381.683,155.587L381.192,157.487L379.231,158.761L376.778,158.945L374.745,158.135L370.608,158.149L361.428,161.516L349.068,166.636L343.251,173.32L340.026,174.99L310.375,178.109L321.245,140.232L320.252,139.896L321.814,128.994L323.478,127.053L329.238,127.214L331.813,126.85L332.612,125.199L332.074,123.138L328.654,121.077L325.541,117.002L327.133,113.704L329.898,110.635L331.792,107.861L331.654,104.972L328.71,97.47L327.702,96.775L325.756,96.481L323.272,97.479L322.674,97.383L322.761,96.338L323.426,94.148L322.474,93.748L321.68,93.951L319.847,94.949L318.101,95.05L317.149,94.554L315.675,92.414L314.359,90.975L311.799,89.682L311.195,89.135L310.882,88.091L310.227,87.69L307.697,88.389L307.047,88.288L306.683,87.243L306.771,86.246L309.828,83.904L310.559,83.007L310.979,80.919L313.718,76.981L316.617,73.885L324.046,66.304L327.082,62.211L331.122,61.902L331.306,60.655L330.395,59.814L329.724,58.218L329.954,56.672L333.431,51.833L336.083,48.535L339.637,45.531L341.378,44.73L342.376,44.675L345.683,45.558L347.68,45.052L350.548,44.767L352.493,46.151L354.178,46.893L355.555,46.91L356.764,47.329L357.224,48.249L357.408,50.669L357.869,51.437L360.137,51.763L361.633,54.087L362.232,54.206L364.275,53.701L367.756,53.981L372.539,52.238L373.634,51.681L374.044,50.71L373.89,46.75L375.134,44.551L375.022,43.778L373.501,42.089L373.312,41.045L373.947,39.946L375.805,38.543L376.286,37.991L375.744,36.721L376.998,34.472L378.585,33.906L379.788,33.704L381.683,33.934L384.858,33.727L386.214,33.267L387.213,32.563L391.124,28.051L392.686,26.947L394.043,26.409L397.151,26.675L399.706,25.47L400.95,26.454L402.481,28.603L404.667,28.11L405.256,29.063L406.244,32.048L407.847,32.19L408.579,31.119L410.135,27.848L411.093,26.675L412.086,26.146L413.131,26.169L413.11,25.41L412.445,24.081L412.266,22.618L412.906,21.647L414.672,20.06L415.875,19.499L416.285,17.733L418.379,13.593L418.998,12.107L420.15,11.518L423.197,10.98L426.832,10.161L429.382,10L429.889,10.473L430.155,11.868L432.93,14.209L433.063,16.849L435.977,18.34L437.549,20.382L438.163,21.431L438.936,21.578L440.119,19.692L440.984,20.18L441.742,23.754L442.382,23.639L443.124,22.636L443.994,22.397L445.239,24.49L446.227,24.637L447.318,22.517L448.127,21.495L449.842,21.196L450.277,20.175L451.516,16.159L452.796,13.243L453.503,12.318L454.573,12.171L456.652,13.142L459.048,14.614L458.976,16.044L459.212,16.481L460.261,16.854L461.009,16.656L463.502,15.161L465.832,14.389L467.025,14.389L467.905,15.037L468.095,16.334L467.158,16.78L465.248,15.708L464.409,15.883L464.199,17.028L465.658,18.276L466.59,18.823L467.583,18.924L468.525,18.574L469.585,18.735L469.728,19.246L468.889,21.491L466.651,25.281L462.801,29.444L462.688,30.589L463.159,31.362L464.864,31.164L467.404,31.086L470.543,31.409L472.468,31.883L474.807,31.984L476.144,31.459L475.98,30.438L473.589,28.643L473.65,27.522L477.577,23.285L478.95,23.607L479.636,24.481L480.127,26.027L479.641,28.69L479.805,29.688L482.703,32.029L485.314,32.053L486.22,32.526L488.212,34.343L488.959,34.592L490.777,34.518L492.267,35.737L493.388,35.912L495.006,35.733L496.404,37.674L497.705,38.198L498.836,40.811L499.656,42.384L500.065,44.872L500.219,46.901L501.104,47.835L501.924,47.661L503.536,45.365L504.509,43.222L505.677,41.124L506.936,40.3L509.087,40.765L509.604,40.295L509.517,38.511L510.346,37.775L511.217,37.747L511.903,38.391L511.688,39.39L511.713,40.986L512.999,42.84ZM742.435,212.807L744.069,213.147L744.827,212.628L745.81,212.798L745.917,211.933L746.373,212.021L746.568,213.552L746.962,214.518L746.531,215.328L744.888,216.671L744.299,218.428L743.081,219.321L742.687,220.019L741.714,220.677L740.787,220.521L740.403,219.813L741.417,218.644L741.114,217.706L739.558,216.946L738.483,217.02L737.397,216.068L737.106,215.162L735.943,214.904L735.703,214.224L736.45,212.011L735.656,211.252L734.791,211.118L735.222,210.313L736.578,210.898L738.488,210.985L739.599,211.947L740.485,212.213L741.007,211.836ZM253.757,282.346L252.047,281.881L251.202,281.067L250.173,279.618L250.142,277.658L249.819,276.881L249.021,276.196L246.471,274.7L245.283,273.376L243.573,271.163L242.77,270.547L241.623,270.101L240.685,270.441L239.277,269.723L238.412,269.907L237.797,270.629L236.994,270.615L235.038,268.937L235.268,268.228L236.476,267.943L238.279,268.146L239.144,268.472L240.655,267.772L242.871,268.072L244.131,267.372L245.048,267.575L245.35,268.044L246.369,271.292L247.879,272.989L249.067,273.776L250.516,274.374L252.769,274.921L254.643,276.219L255.697,278.049L256.322,279.857L256.972,280.556L257.054,281.173L256.507,281.747ZM263.552,276.945L262.472,276.2L261.627,275.221L261.407,273.817L260.638,272.874L259.251,272.009L259.353,270.542L260.162,269.061L260.848,268.744L262.175,268.716L262.968,269.056L264.033,268.959L265.098,268.288L265.712,266.522L266.112,266.085L267.284,265.684L267.96,265.841L268.907,266.972L269.455,268.826L269.491,270.192L268.79,269.921L267.53,270.101L267.126,270.859L265.968,271.36L265.231,272.584L264.699,275.261L264.202,276.71ZM678.347,298.786L677.856,298.91L677.585,298.055L677.195,298.92L676.714,299.103L676.663,298.078L677.415,297.116L677.902,297.13L678.388,297.908L679.223,297.623L679.146,298.183ZM333.846,300.18L334.163,299.03L336.406,299.122L337.645,300.245L338.408,300.479L337.88,301.592L338.013,302.618L337.322,303.088L335.551,302.361L334.143,301.409ZM266.645,241.143L266.025,240.485L267.008,239.749L267.54,239.768L267.55,240.637ZM331.122,232.674L332.371,232.164L333.144,232.761L332.919,233.852L332.97,235.766L332.525,236.235L331.915,236.101L331.168,235.039L330.774,233.787ZM560.359,452.538L561.358,453.054L560.672,453.822L559.187,453.146L558.772,452.06L559.848,451.834ZM585.09,400.746L586.262,399.674L586.359,401.169L585.141,401.252ZM367.654,190.648L367.249,191.306L365.667,191.43L365.227,190.772L365.703,190.156L367.245,190.078ZM319.822,284.218L320.267,284.291L320.58,285.184L319.484,285.253ZM371.089,206.528L371.233,205.622L372.057,204.637L372.958,204.674L373.204,206.891L372.539,207.576Z" stroke="#747569" stroke-width="1" stroke-dasharray="3,3" fill="none"></path><path d="M513.173,45.692L511.385,45.751L508.354,46.349L506.705,48.052L506.127,49.919L503.721,55.232L503.813,56.984L504.207,58.572L504.796,59.657L505.994,62.684L505.917,63.913L506.174,65.485L505.702,66.907L504.279,68.568L504.817,70.371L505.508,71.015L505.559,72.276L505.354,73.987L504.689,74.911L503.931,75.422L503.7,77.16L502.574,78.173L502.195,78.181L502.225,80.946L502.902,86.314L502.261,86.568L502.753,86.977L499.681,90.639L498.708,90.768L497.101,91.549L497.838,94.006L498.785,95.289L500.219,96.31L502.011,96.72L507.31,97.387L508.462,97.925L510.203,99.793L512.328,102.861L518.702,104.139L521.37,107.511L521.933,107.948L523.699,111.762L524.775,114.375L524.944,116.017L522.599,116.601L505.804,116.9L505.902,119.292L510.71,119.292L512.138,122.605L512.656,123.391L507.745,124.003L507.781,120.539L503.854,120.01L503.444,124.619L498.923,122.126L496.747,122.154L497.812,124.311L491.294,130.024L484.812,124.311L478.412,131.188L480.982,138.253L482.016,140.927L483.107,142.284L484.894,143.861L487.828,146.162L488.99,147.661L486.804,150.729L487.608,151.456L486.051,153.775L486.41,153.931L487.086,153.236L488.688,153.25L490.229,154.248L490.654,155.044L493.209,157.887L493.757,157.505L495.093,158.117L497.628,159.695L498.549,159.566L501.084,158.338L503.081,158.439L503.951,157.854L505.001,157.749L506.101,157.059L506.768,155.858L508.682,155.164L512.625,155.444L515.85,156.263L517.668,156.981L519.204,157.234L520.305,159.28L521.022,161.199L521.559,163.733L521.38,165.729L520.254,167.188L519.614,168.394L519.101,169.976L518.206,172.023L521.549,171.935L522.404,172.75L523.5,174.65L524.657,174.737L525.824,175.593L530.084,172.124L531.016,172.786L533.755,172.041L533.858,172.92L535.691,173.803L538.65,173.752L541.671,173.923L542.659,173.034L543.14,172.105L544.354,171.508L544.431,172.506L544.814,172.501L545.521,171.139L544.927,170.275L546.044,169.461L548.076,169.005L548.435,170.468L548.03,172.11L548.593,173.862L550.088,173.849L551.763,173.127L552.397,173.642L553.324,173.509L554.241,171.65L554.174,171.048L555.06,170.905L555.808,173.67L556.074,175.357L557.154,174.58L557.272,173.26L557.963,172.708L557.615,172.073L558.824,172.073L559.52,174.042L560.953,173.025L561.542,172.225L563.549,171.876L564.916,172.46L564.629,173.338L566.207,173.656L566.698,174.276L567.092,175.749L566.693,177.299L567.302,177.838L568.895,177.111L569.463,177.621L570.584,177.501L571.654,177.805L572.208,177.331L573.17,177.925L573.323,178.528L574.655,178.688L574.947,178.1L575.591,178.403L577.522,178.426L579.386,176.177L580.097,175.892L580.819,171.452L582.182,171.806L582.248,170.21L583.011,169.658L583.636,168.582L584.388,168.904L584.957,168.545L585.704,168.729L586.185,167.727L586.969,167.648L587.793,166.995L589.503,166.581L589.657,167.915L589.324,168.499L590.568,168.605L590.998,170.413L591.413,171.356L591.946,171.668L592.288,172.828L593.246,172.713L593.697,173.748L594.311,173.196L594.034,171.342L594.362,170.182L594.116,169.028L594.526,168.085L595.217,168.085L596.395,166.866L596.825,167.082L596.717,168.394L595.878,169.594L594.654,170.399L594.797,171.6L595.412,170.79L596.482,170.992L596.543,169.539L597.137,169.276L597.286,171.738L598.371,172.313L598.668,172.051L598.32,170.859L599.308,169.653L600.86,169.889L600.655,171.144L601.131,172.676L601.484,172.414L601.197,171.167L601.735,171.296L601.832,172.846L602.375,173.637L601.853,173.982L601.469,176.057L602.021,175.638L603.317,175.344L604.643,174.093L605.16,174.061L605.094,172.736L605.739,172.455L605.662,171.935L609.272,173.591L610.034,173.794L610.859,173.462L612.334,174.893L614.448,174.208L615.201,174.396L615.923,175.593L616.328,175.666L617.244,174.788L617.873,175.132L617.71,175.616L618.708,176.131L618.862,175.795L619.578,176.425L619.865,177.722L622.052,177.57L622.343,176.724L623.157,176.315L623.403,175.16L625.155,175.151L626.009,174.829L626.179,176.273L626.946,176.185L627.479,176.724L628.508,176.351L628.779,174.912L629.312,174.313L630.454,173.743L631.416,172.189L632.742,172.271L634.181,173.38L634.801,177.451L635.994,177.649L638.533,177.359L639.598,176.047L641.318,173.586L641.861,173.025L643.065,174.323L642.455,175.771L643.663,176.545L643.397,177.911L644.57,177.501L644.734,178.932L645.41,179.705L646.418,180.345L646.966,180.284L648.395,179.236L649.019,177.985L649.019,176.968L649.9,176.821L650.299,178.302L651.211,178.205L651.84,176.402L653.249,174.921L653.586,175.785L654.38,176.734L655.384,176.765L655.793,177.143L656.279,178.545L657.237,178.407L657.944,179.585L658.717,179.415L659.377,180.018L660.032,180.1L661.307,179.7L661.282,179.029L664.201,177.515L664.508,178.238L664.605,179.59L665.501,179.898L665.536,180.537L666.376,180.671L667.871,181.637L668.255,182.768L669.469,182.382L669.597,183.431L668.834,184.853L669.09,185.727L669.899,186.288L669.356,187.677L669.597,189.729L670.928,189.655L671.363,191.159L672.29,190.524L672.295,188.491L671.609,187.681L672.224,185.34L673.591,185.86L673.703,186.333L674.773,186.145L674.999,184.369L677.743,183.403L678.158,183.495L679.714,184.76L680.17,185.437L680.774,188.229L681.742,188.367L681.496,186.536L682.592,186.246L682.233,184.816L682.495,184.383L683.856,184.995L684.21,185.975L685.316,186.72L686.115,186.08L687.072,186.039L687.656,185.354L687.65,186.186L688.761,186.38L688.93,184.489L689.55,183.84L690.62,183.937L691.88,185.009L693.129,184.084L693.621,184.719L695.766,183.721L696.135,184.277L698.505,183.251L701.193,182.667L703.057,181.816L703.62,182.06L705.336,185.63L707.614,185.832L718.766,185.777L723.68,185.704L726.369,185.878L716.016,214.435L713.686,217.761L710.763,219.988L661.512,243.033L659.004,245.012L656.362,248.613L652.179,257.625L650.366,259.244L647.437,259.778L639.91,259.41L637.678,259.948L635.866,261.392L635.446,263.375L636.004,265.358L639.491,267.883L640.054,269.687L639.91,272.032L637.12,282.668L636.982,286.09L637.258,289.337L637.955,291.684L639.772,293.308L665.685,303.805L667.36,305.792L667.774,307.954L667.498,310.3L666.243,312.099L664.011,312.812L653.566,311.528L650.084,312.062L646.874,312.78L641.856,314.574L637.535,317.453L633.536,321.391L630.085,325.177L626.547,329.717L618.544,339.786L617.013,341.052L614.356,341.59L600.368,340.904L597.567,341.268L595.888,342.712L595.048,345.054L594.766,348.122L595.745,351.899L597.849,355.491L608.478,368.969L609.6,371.844L609.318,375.989L607.777,378.694L605.677,379.775L602.744,379.6L582.719,371.564L578.096,369.958L574.035,369.797L563.805,372.713L561.138,374.347L559.596,377.052L550.073,401.377L548.67,403L546.571,403.368L544.047,402.835L522.788,387.227L520.131,384.711L517.259,384.366L510.438,383.091L508.979,385.24L509.808,387.111L510.402,389.679L514.407,390.7L516.905,391.086L518.262,393.032L523.664,406.814L524.017,408.769L523.628,410.636L522.993,412.104L521.452,413.658L519.511,415.269L517.371,415.407L515.236,415.071L510.904,410.977L510.438,409.496L511.273,406.745L510.664,404.914L508.606,404.049L506.757,404.196L501.381,405.273L499.348,404.965L478.095,398.455L477.501,400.457L477.854,403.079L479.764,405.857L492.18,415.586L496.24,418.364L502.215,421.76L506.398,423.917L509.266,426.387L509.747,427.928L509.143,430.546L507.474,434.704L507.238,437.781L507.592,441.636L508.549,444.713L510.341,445.795L515.011,447.331L517.96,446.752L518.754,447.501L518.713,449.061L515.722,451.949L513.213,453.647L508.667,454.415L504.483,455.8L501.729,457.492L488.714,468.252L486.707,469.549L484.295,470L470.45,465.75L466.395,463.891L449.453,448.15L449.212,446.452L450.052,443.067L450.288,439.837L449.694,435.523L442.413,417.482L442.054,415.945L442.53,411.322L442.059,409.932L440.738,408.695L424.492,404.058L422.464,404.404L420.883,406.183L418.169,404.67L415.573,403.635L408.226,401.754L404.79,400.374L402.624,398.745L401.391,397.177L398.221,395.567L394.038,389.522L393.142,387.006L393.388,385.336L394.289,380.676L394.243,380.382L393.081,380.308L392.804,380.676L392.123,380.23L392.21,379.02L391.304,377.337L391.17,377.76L390.136,377.971L390.28,377.235L388.185,375.35L387.12,375.387L387.161,372.258L386.46,370.497L387.884,368.739L388.011,368.256L389.051,367.736L389.076,366.775L388.134,366.83L387.397,366.237L386.593,364.318L382.681,363.799L382.569,363.113L381.253,363.376L379.231,361.172L378.606,361.807L375.738,358.753L373.921,360.468L372.528,362.073L368.356,363.633L367.152,364.622L367.07,365.998L363.491,367.502L361.93,365.335L360.158,366.085L358.515,364.802L358.781,364.563L356.17,360.8L353.599,356.292L361.141,352.506L376.409,335.232L377.039,332.132L373.465,330.025L370.541,327.817L368.842,324.39L366.952,323.332L365.693,321.027L365.063,317.283L365.012,313.81L364.433,313.005L363.112,312.269L360.773,313.12L359.406,313.153L358.417,312.417L357.184,305.084L356.293,304.559L354.208,305.208L353.456,304.679L353.271,303.855L353.108,300.879L352.79,299.702L350.86,298.313L343.799,298.395L329.863,298.115L327.231,295.732L325.5,289.016L322.587,282.888L321.291,281.5L320.349,279.756L319.561,277.143L319.632,274.181L320.349,271.131L321.788,269.493L323.892,268.049L328.019,266.296L328.7,265.054L328.469,263.886L327.231,262.496L323.155,260.155L321.854,258.839L321.01,256.424L320.61,253.94L321.01,251.746L322.059,250.095L324.251,248.931L326.606,248.604L328.884,248.549L335.592,249.428L345.771,251.944L346.836,251.452L346.836,249.906L345.975,248.885L341.613,246.332L341.05,244.869L341.275,243.259L341.782,242.233L343.2,241.576L344.675,241.644L348.469,244.275L349.718,243.907L352.381,241.488L352.381,240.246L352.043,239.078L350.855,238.052L347.45,238.13L345.863,237.27L344.941,237.197L342.463,238.406L340.369,238.213L339.232,237.702L338.5,236.607L335.894,231.124L334.44,229.27L332.505,228.267L330.441,228.438L328.766,229.937L326.98,234.128L326.017,234.855L324.824,234.712L324.036,234.05L323.191,232.283L321.137,223.691L320.902,220.282L321.383,217.053L322.612,213.998L324.543,212.108L326.581,211.225L329.074,211.372L337.926,212.595L339.447,212.154L340.225,210.507L340.794,207.489L341.434,206.297L342.847,206.022L351.561,210.309L353.333,211.128L355.11,211.128L357.234,210.116L360.27,207.724L361.986,207.724L363.686,208.818L365.693,211.716L367.869,213.474L370.562,213.833L372.943,211.574L373.824,212.544L378.575,208.781L379.43,206.22L379.077,203.842L378.078,201.652L376.24,200.01L374.397,199.917L368.719,202.314L366.875,202.042L365.391,200.671L364.751,198.298L364.817,196.651L365.616,195.304L367.183,193.854L367.941,192.507L368.012,191.062L367.475,188.633L367.741,186.844L368.77,185.552L370.429,184.843L374.797,182.373L385.749,175.45L388.288,174.654L394.591,180.519L396.69,181.531L398.257,179.318L398.062,170.054L396.551,167.234L393.91,164.507L393.598,161.958L396.331,157.321L400.366,151.635L401.528,147.872L401.621,145.379L401.083,143.162L399.798,142.591L396.398,143.793L394.017,145.968L389.67,150.412L382.384,154.138L381.683,155.587L381.192,157.487L379.231,158.761L376.778,158.945L374.745,158.135L370.608,158.149L361.428,161.516L349.068,166.636L343.251,173.32L340.026,174.99L310.375,178.109L321.245,140.232L320.252,139.896L321.814,128.994L323.478,127.053L329.238,127.214L331.813,126.85L332.612,125.199L332.074,123.138L328.654,121.077L325.541,117.002L327.133,113.704L329.898,110.635L331.792,107.861L331.654,104.972L328.71,97.47L327.702,96.775L325.756,96.481L323.272,97.479L322.674,97.383L322.761,96.338L323.426,94.148L322.474,93.748L321.68,93.951L319.847,94.949L318.101,95.05L317.149,94.554L315.675,92.414L314.359,90.975L311.799,89.682L311.195,89.135L310.882,88.091L310.227,87.69L307.697,88.389L307.047,88.288L306.683,87.243L306.771,86.246L309.828,83.904L310.559,83.007L310.979,80.919L313.718,76.981L316.617,73.885L324.046,66.304L327.082,62.211L331.122,61.902L331.306,60.655L330.395,59.814L329.724,58.218L329.954,56.672L333.431,51.833L336.083,48.535L339.637,45.531L341.378,44.73L342.376,44.675L345.683,45.558L347.68,45.052L350.548,44.767L352.493,46.151L354.178,46.893L355.555,46.91L356.764,47.329L357.224,48.249L357.408,50.669L357.869,51.437L360.137,51.763L361.633,54.087L362.232,54.206L364.275,53.701L367.756,53.981L372.539,52.238L373.634,51.681L374.044,50.71L373.89,46.75L375.134,44.551L375.022,43.778L373.501,42.089L373.312,41.045L373.947,39.946L375.805,38.543L376.286,37.991L375.744,36.721L376.998,34.472L378.585,33.906L379.788,33.704L381.683,33.934L384.858,33.727L386.214,33.267L387.213,32.563L391.124,28.051L392.686,26.947L394.043,26.409L397.151,26.675L399.706,25.47L400.95,26.454L402.481,28.603L404.667,28.11L405.256,29.063L406.244,32.048L407.847,32.19L408.579,31.119L410.135,27.848L411.093,26.675L412.086,26.146L413.131,26.169L413.11,25.41L412.445,24.081L412.266,22.618L412.906,21.647L414.672,20.06L415.875,19.499L416.285,17.733L418.379,13.593L418.998,12.107L420.15,11.518L423.197,10.98L426.832,10.161L429.382,10L429.889,10.473L430.155,11.868L432.93,14.209L433.063,16.849L435.977,18.34L437.549,20.382L438.163,21.431L438.936,21.578L440.119,19.692L440.984,20.18L441.742,23.754L442.382,23.639L443.124,22.636L443.994,22.397L445.239,24.49L446.227,24.637L447.318,22.517L448.127,21.495L449.842,21.196L450.277,20.175L451.516,16.159L452.796,13.243L453.503,12.318L454.573,12.171L456.652,13.142L459.048,14.614L458.976,16.044L459.212,16.481L460.261,16.854L461.009,16.656L463.502,15.161L465.832,14.389L467.025,14.389L467.905,15.037L468.095,16.334L467.158,16.78L465.248,15.708L464.409,15.883L464.199,17.028L465.658,18.276L466.59,18.823L467.583,18.924L468.525,18.574L469.585,18.735L469.728,19.246L468.889,21.491L466.651,25.281L462.801,29.444L462.688,30.589L463.159,31.362L464.864,31.164L467.404,31.086L470.543,31.409L472.468,31.883L474.807,31.984L476.144,31.459L475.98,30.438L473.589,28.643L473.65,27.522L477.577,23.285L478.95,23.607L479.636,24.481L480.127,26.027L479.641,28.69L479.805,29.688L482.703,32.029L485.314,32.053L486.22,32.526L488.212,34.343L488.959,34.592L490.777,34.518L492.267,35.737L493.388,35.912L495.006,35.733L496.404,37.674L497.705,38.198L498.836,40.811L499.656,42.384L500.065,44.872L500.219,46.901L501.104,47.835L501.924,47.661L503.536,45.365L504.509,43.222L505.677,41.124L506.936,40.3L509.087,40.765L509.604,40.295L509.517,38.511L510.346,37.775L511.217,37.747L511.903,38.391L511.688,39.39L511.713,40.986L512.999,42.84ZM742.435,212.807L744.069,213.147L744.827,212.628L745.81,212.798L745.917,211.933L746.373,212.021L746.568,213.552L746.962,214.518L746.531,215.328L744.888,216.671L744.299,218.428L743.081,219.321L742.687,220.019L741.714,220.677L740.787,220.521L740.403,219.813L741.417,218.644L741.114,217.706L739.558,216.946L738.483,217.02L737.397,216.068L737.106,215.162L735.943,214.904L735.703,214.224L736.45,212.011L735.656,211.252L734.791,211.118L735.222,210.313L736.578,210.898L738.488,210.985L739.599,211.947L740.485,212.213L741.007,211.836ZM253.757,282.346L252.047,281.881L251.202,281.067L250.173,279.618L250.142,277.658L249.819,276.881L249.021,276.196L246.471,274.7L245.283,273.376L243.573,271.163L242.77,270.547L241.623,270.101L240.685,270.441L239.277,269.723L238.412,269.907L237.797,270.629L236.994,270.615L235.038,268.937L235.268,268.228L236.476,267.943L238.279,268.146L239.144,268.472L240.655,267.772L242.871,268.072L244.131,267.372L245.048,267.575L245.35,268.044L246.369,271.292L247.879,272.989L249.067,273.776L250.516,274.374L252.769,274.921L254.643,276.219L255.697,278.049L256.322,279.857L256.972,280.556L257.054,281.173L256.507,281.747ZM263.552,276.945L262.472,276.2L261.627,275.221L261.407,273.817L260.638,272.874L259.251,272.009L259.353,270.542L260.162,269.061L260.848,268.744L262.175,268.716L262.968,269.056L264.033,268.959L265.098,268.288L265.712,266.522L266.112,266.085L267.284,265.684L267.96,265.841L268.907,266.972L269.455,268.826L269.491,270.192L268.79,269.921L267.53,270.101L267.126,270.859L265.968,271.36L265.231,272.584L264.699,275.261L264.202,276.71ZM678.347,298.786L677.856,298.91L677.585,298.055L677.195,298.92L676.714,299.103L676.663,298.078L677.415,297.116L677.902,297.13L678.388,297.908L679.223,297.623L679.146,298.183ZM333.846,300.18L334.163,299.03L336.406,299.122L337.645,300.245L338.408,300.479L337.88,301.592L338.013,302.618L337.322,303.088L335.551,302.361L334.143,301.409ZM266.645,241.143L266.025,240.485L267.008,239.749L267.54,239.768L267.55,240.637ZM331.122,232.674L332.371,232.164L333.144,232.761L332.919,233.852L332.97,235.766L332.525,236.235L331.915,236.101L331.168,235.039L330.774,233.787ZM560.359,452.538L561.358,453.054L560.672,453.822L559.187,453.146L558.772,452.06L559.848,451.834ZM585.09,400.746L586.262,399.674L586.359,401.169L585.141,401.252ZM367.654,190.648L367.249,191.306L365.667,191.43L365.227,190.772L365.703,190.156L367.245,190.078ZM319.822,284.218L320.267,284.291L320.58,285.184L319.484,285.253ZM371.089,206.528L371.233,205.622L372.057,204.637L372.958,204.674L373.204,206.891L372.539,207.576Z" stroke="#06033b" stroke-width="3" stroke-dasharray="none" fill="none"></path></g></svg>
